<svg version="1.2" xmlns="http://www.w3.org/2000/svg" viewBox="-61 -122 686 686" width="686" height="686">
	<style>
		.s0 { fill: #aaaaaa } 
		.s1 { fill: #cccbca } 
		.s2 { fill: #2b2b2b } 
	</style>
	<g id="Layer 1">
		<g>
		</g>
		<g>
		</g>
		<g id="Dossier 1">
		</g>
		<g id="Dossier 2">
			<path id="Layer copy 11" class="s0" d="m100.2 336.4l20.6-5.5-45.7-172.8 58.5-173.5-20.2-6.5-60.5 179.5z"/>
			<path id="Layer copy 12" class="s0" d="m76.7 247.8l29.2 110.1 33-33-17.3-65.1z"/>
			<path id="Layer copy 13" class="s1" d="m116 347.8l-10.1 10.1-53-200.3 60.5-179.5 10.1 3.2-58.5 173.6z"/>
			<path class="s0" d="m123.3-54c22.9 0 41.3 18.2 41.3 40.7 0 22.5-18.4 40.6-41.3 40.6-22.9 0-41.4-18.1-41.4-40.6 0-22.5 18.5-40.7 41.4-40.7z"/>
			<path class="s2" d="m123.3-35.6c12.6 0 22.7 9.9 22.7 22.3 0 12.3-10.1 22.3-22.7 22.3-12.5 0-22.7-10-22.7-22.3 0-12.4 10.2-22.3 22.7-22.3z"/>
		</g>
	</g>
</svg>