<svg version="1.2" xmlns="http://www.w3.org/2000/svg" viewBox="-61 -122 686 686" width="686" height="686">
	<style>
		.s0 { fill: #aaaaaa } 
		.s1 { fill: #cccbca } 
		.s2 { fill: #2b2b2b } 
	</style>
	<g id="Layer 1">
		<g>
		</g>
		<g>
		</g>
		<g id="Dossier 1">
		</g>
		<g id="Dossier 2">
			<path class="s0" d="m-16.2 292.4l21.2 2.7 23.1-177.2 119.9-138.5-16.3-13.6-124 143.2z"/>
			<path class="s0" d="m-4.4 201.5l-14.6 112.9 43-18 8.6-66.8z"/>
			<path class="s1" d="m-5.9 308.9l-13.1 5.5 26.7-205.4 124-143.2 8.1 6.8-119.9 138.5z"/>
			<path class="s0" d="m123.3-54c22.9 0 41.3 18.2 41.3 40.7 0 22.5-18.4 40.6-41.3 40.6-22.9 0-41.4-18.1-41.4-40.6 0-22.5 18.5-40.7 41.4-40.7z"/>
			<path class="s2" d="m123.3-35.6c12.6 0 22.7 9.9 22.7 22.3 0 12.3-10.1 22.3-22.7 22.3-12.5 0-22.7-10-22.7-22.3 0-12.4 10.2-22.3 22.7-22.3z"/>
		</g>
	</g>
</svg>