<svg version="1.2" xmlns="http://www.w3.org/2000/svg" viewBox="0 0 800 800" width="800" height="800">
	<style>
		.s0 { fill: #232323 } 
		.s1 { fill: #333333 } 
		.s2 { fill: #000000 } 
		.s3 { fill: #333333 } 
		.s4 { fill: #4AF626 } 
		.s5 { fill: #333333 } 
	</style>
	<g id="Layer 1">
		<path class="s0" d="m400 743c-189.7 0-343-153.3-343-343 0-189.7 153.3-343 343-343 189.7 0 343 153.3 343 343 0 189.7-153.3 343-343 343z"/>
		<path class="s1" d="m719.3 274.3c-35-88.7-105.6-159.1-194.3-193.9l-129.6 309.1-315.4 134c34.6 89.4 105.6 160.8 194.9 196l130.6-311.9z"/>
		<path class="s2" d="m697.6 397.4h-5.5c-1.5 0-2.8 1.3-2.8 2.8 0 159.4-129.7 289.1-289.1 289.1-1.5 0-2.8 1.3-2.8 2.8v5.5c0 1.4 1.3 2.7 2.8 2.7 80.2 0 155.5-31.3 212.2-87.9 56.6-56.7 87.9-132.2 87.9-212.2 0-1.5-1.1-2.8-2.7-2.8z"/>
		<path class="s2" d="m400.2 641.8c-1.5 0-2.8 1.3-2.8 2.8v5.5c0 1.5 1.3 2.8 2.8 2.8 139.3 0 252.7-113.4 252.7-252.7 0-1.5-1.3-2.8-2.8-2.8h-5.5c-1.5 0-2.8 1.3-2.8 2.8 0 133.2-108.4 241.6-241.6 241.6z"/>
		<path class="s2" d="m397.4 594.7v5.5c0 1.5 1.3 2.8 2.8 2.8 54.1 0 104.9-21.2 143.2-59.5 38.2-38.2 59.4-89.2 59.4-143.1 0-1.5-1.3-2.8-2.8-2.8h-5.5c-1.5 0-2.7 1.3-2.7 2.8 0 105.6-86 191.5-191.6 191.5-1.5 0-2.8 1.1-2.8 2.8z"/>
		<path class="s2" d="m400 110.9c1.5 0 2.8-1.3 2.8-2.7v-5.6c0-1.4-1.3-2.7-2.8-2.7-80.2 0-155.5 31.3-212.2 87.9-56.6 56.7-87.9 132.2-87.9 212.2 0 1.5 1.3 2.8 2.7 2.8h5.6c1.4 0 2.5-1.1 2.7-2.6 0 0 0-0.2 0-0.4 0-77.1 30.2-149.6 84.9-204.2 54.6-54.5 127.1-84.7 204.2-84.7z"/>
		<path class="s2" d="m400 158.4c1.5 0 2.8-1.3 2.8-2.8v-5.5c0-0.7-0.4-1.5-0.9-2-0.6-0.6-1.2-0.7-2.1-0.7-139.3 0-252.6 113.3-252.6 252.6 0 1.5 1.3 2.8 2.7 2.8h5.6c1.4 0 2.7-1.3 2.7-2.8 0-64.4 25.2-125.1 70.9-170.8 45.8-45.6 106.5-70.8 170.9-70.8z"/>
		<path class="s2" d="m402.8 205.7v-5.5c0-0.8-0.4-1.5-0.8-2.1-0.5-0.5-1.3-0.7-2-0.7-111.7 0-202.6 90.9-202.6 202.6 0 1.5 1.3 2.8 2.8 2.8h5.5c1.5 0 2.7-1.3 2.7-2.8 0-105.6 86-191.6 191.6-191.6 1.5 0 2.8-1.2 2.8-2.7z"/>
		<path class="s3" d="m400 555c-85.7 0-154.9-69.3-154.9-155 0-85.7 69.2-154.9 154.9-154.9 85.7 0 155 69.2 155 154.9 0 85.7-69.3 155-155 155z"/>
		<path class="s4" d="m400 524.6c-68.9 0-124.6-55.7-124.6-124.6 0-68.9 55.7-124.6 124.6-124.6 68.9 0 124.6 55.7 124.6 124.6 0 68.9-55.7 124.6-124.6 124.6z"/>
		<path class="s5" d="m400 421.2c-11.7 0-21.2-9.5-21.2-21.2 0-11.7 9.5-21.2 21.2-21.2 11.7 0 21.2 9.5 21.2 21.2 0 11.7-9.5 21.2-21.2 21.2z"/>
	</g>
</svg>