<svg version="1.2" xmlns="http://www.w3.org/2000/svg" viewBox="0 0 595 842" width="595" height="842">
	<title>template</title>
	<style>
		.s0 { fill: #000000ff } 
		.s1 { fill: #000000ff } 
	</style>
	<g id="Layer 1">
		<path id="Forme 1" fill-rule="evenodd" class="s0" d=""/>
		<path id="Forme 2" fill-rule="evenodd" class="s0" d=""/>
		<path id="Forme 3" fill-rule="evenodd" class="s1" d="m198.5 326.2c0 0-8.6-16.2-32.9-17h-118c0 0-9.5 1.1-5.7 10.2l174.8 303c0 0 7.2 12.3 18.1 0l55.6-96.4c0 0 12.1-23.1-2.2-45.4l-28.4-48.8c0 0 29.2-3.4 45.4 20.4l93.1 161.1c0 0 5.4 13.4 18.1 13.7h131.7c0 0 8.9-1.3 4.5-11.4l-98.7-172.5c0 0-27.9-34.7-57.9-31.8h-37.5c0 0 13.6-13.6 30.7-48.8l78.3-135c0 0 5.9-8.7-5.7-12.5h-128.2c0 0-10.7-0.5-18.2 11.4l-87.4 149.8z"/>
	</g>
</svg>